<mxfile host="app.diagrams.net" modified="2023-08-20T19:25:22.925Z" agent="Mozilla/5.0 (Macintosh; Intel Mac OS X 10_15_7) AppleWebKit/537.36 (KHTML, like Gecko) Chrome/115.0.0.0 Safari/537.36" version="21.6.8" etag="a2vZQ4kHLbeSahcZh69p" type="github">
  <diagram name="Page-1" id="dnUIe1XGTZ1thFwmhzwx">
    <mxGraphModel>
      <root>
        <mxCell id="0" />
        <mxCell id="1" parent="0" />
      </root>
    </mxGraphModel>
  </diagram>
</mxfile>
